<svg width="347" height="74" viewBox="0 0 347 74" fill="none" xmlns="http://www.w3.org/2000/svg">
<path d="M230 50C230 44.4772 234.477 40 240 40H333C338.523 40 343 44.4772 343 50V56C343 61.5228 338.523 66 333 66H230V50Z" fill="#EAA395"/>
<g filter="url(#filter0_d_3142_8580)">
<path d="M117 30C117 24.4772 121.477 20 127 20H220C225.523 20 230 24.4772 230 30V60H117V30Z" fill="#EE7359"/>
<path fill-rule="evenodd" clip-rule="evenodd" d="M240 60L230 60L230 50C230 55.5228 234.477 60 240 60Z" fill="#EE7359"/>
</g>
<path d="M178.461 44.8027V47H168.734V45.125L173.334 40.1934C173.796 39.679 174.161 39.2266 174.428 38.8359C174.695 38.4388 174.887 38.084 175.004 37.7715C175.128 37.4525 175.189 37.1497 175.189 36.8633C175.189 36.4336 175.118 36.0658 174.975 35.7598C174.831 35.4473 174.62 35.2064 174.34 35.0371C174.066 34.8678 173.728 34.7832 173.324 34.7832C172.895 34.7832 172.523 34.8874 172.211 35.0957C171.905 35.304 171.671 35.5938 171.508 35.9648C171.352 36.3359 171.273 36.7559 171.273 37.2246H168.451C168.451 36.3783 168.653 35.6035 169.057 34.9004C169.46 34.1908 170.03 33.6276 170.766 33.2109C171.501 32.7878 172.374 32.5762 173.383 32.5762C174.379 32.5762 175.219 32.7389 175.902 33.0645C176.592 33.3835 177.113 33.8457 177.465 34.4512C177.823 35.0501 178.002 35.7663 178.002 36.5996C178.002 37.0684 177.927 37.5273 177.777 37.9766C177.628 38.4193 177.413 38.862 177.133 39.3047C176.859 39.7409 176.527 40.1836 176.137 40.6328C175.746 41.082 175.313 41.5475 174.838 42.0293L172.367 44.8027H178.461Z" fill="white"/>
<path d="M284.615 48.6699H286.119C286.601 48.6699 286.998 48.5885 287.311 48.4258C287.623 48.2565 287.854 48.0221 288.004 47.7227C288.16 47.4167 288.238 47.0618 288.238 46.6582C288.238 46.2936 288.167 45.9714 288.023 45.6914C287.887 45.4049 287.675 45.1836 287.389 45.0273C287.102 44.8646 286.741 44.7832 286.305 44.7832C285.96 44.7832 285.641 44.8516 285.348 44.9883C285.055 45.125 284.82 45.3171 284.645 45.5645C284.469 45.8118 284.381 46.1113 284.381 46.4629H281.559C281.559 45.6816 281.767 45.0013 282.184 44.4219C282.607 43.8424 283.173 43.39 283.883 43.0645C284.592 42.7389 285.374 42.5762 286.227 42.5762C287.19 42.5762 288.033 42.7324 288.756 43.0449C289.479 43.3509 290.042 43.8034 290.445 44.4023C290.849 45.0013 291.051 45.7435 291.051 46.6289C291.051 47.0781 290.947 47.5143 290.738 47.9375C290.53 48.3542 290.23 48.7318 289.84 49.0703C289.456 49.4023 288.987 49.6693 288.434 49.8711C287.88 50.0664 287.258 50.1641 286.568 50.1641H284.615V48.6699ZM284.615 50.8086V49.3535H286.568C287.343 49.3535 288.023 49.4414 288.609 49.6172C289.195 49.793 289.687 50.0469 290.084 50.3789C290.481 50.7044 290.781 51.0918 290.982 51.541C291.184 51.9837 291.285 52.4753 291.285 53.0156C291.285 53.6797 291.158 54.2721 290.904 54.793C290.65 55.3073 290.292 55.7435 289.83 56.1016C289.374 56.4596 288.84 56.7331 288.229 56.9219C287.617 57.1042 286.949 57.1953 286.227 57.1953C285.628 57.1953 285.038 57.1139 284.459 56.9512C283.886 56.7819 283.365 56.5312 282.896 56.1992C282.434 55.8607 282.063 55.4375 281.783 54.9297C281.51 54.4154 281.373 53.8066 281.373 53.1035H284.195C284.195 53.4681 284.286 53.7936 284.469 54.0801C284.651 54.3665 284.902 54.5911 285.221 54.7539C285.546 54.9167 285.908 54.998 286.305 54.998C286.754 54.998 287.138 54.9167 287.457 54.7539C287.783 54.5846 288.03 54.3503 288.199 54.0508C288.375 53.7448 288.463 53.39 288.463 52.9863C288.463 52.4655 288.368 52.0488 288.18 51.7363C287.991 51.4173 287.721 51.1829 287.369 51.0332C287.018 50.8835 286.601 50.8086 286.119 50.8086H284.615Z" fill="white"/>
<g filter="url(#filter1_d_3142_8580)">
<path fill-rule="evenodd" clip-rule="evenodd" d="M14 0H107C112.523 0 117 4.47715 117 10V50C117 55.5228 121.477 60 127 60H342.168C340.625 63.5318 337.101 66 333 66H107H14C8.47715 66 4 61.5228 4 56V10C4 4.47715 8.47715 0 14 0Z" fill="#F2421D"/>
</g>
<path d="M62.5898 22.752V37H59.7773V25.9941L56.3984 27.0684V24.8516L62.2871 22.752H62.5898Z" fill="white"/>
<defs>
<filter id="filter0_d_3142_8580" x="113" y="20" width="131" height="48" filterUnits="userSpaceOnUse" color-interpolation-filters="sRGB">
<feFlood flood-opacity="0" result="BackgroundImageFix"/>
<feColorMatrix in="SourceAlpha" type="matrix" values="0 0 0 0 0 0 0 0 0 0 0 0 0 0 0 0 0 0 127 0" result="hardAlpha"/>
<feOffset dy="4"/>
<feGaussianBlur stdDeviation="2"/>
<feComposite in2="hardAlpha" operator="out"/>
<feColorMatrix type="matrix" values="0 0 0 0 0 0 0 0 0 0 0 0 0 0 0 0 0 0 0.25 0"/>
<feBlend mode="normal" in2="BackgroundImageFix" result="effect1_dropShadow_3142_8580"/>
<feBlend mode="normal" in="SourceGraphic" in2="effect1_dropShadow_3142_8580" result="shape"/>
</filter>
<filter id="filter1_d_3142_8580" x="0" y="0" width="346.168" height="74" filterUnits="userSpaceOnUse" color-interpolation-filters="sRGB">
<feFlood flood-opacity="0" result="BackgroundImageFix"/>
<feColorMatrix in="SourceAlpha" type="matrix" values="0 0 0 0 0 0 0 0 0 0 0 0 0 0 0 0 0 0 127 0" result="hardAlpha"/>
<feOffset dy="4"/>
<feGaussianBlur stdDeviation="2"/>
<feComposite in2="hardAlpha" operator="out"/>
<feColorMatrix type="matrix" values="0 0 0 0 0 0 0 0 0 0 0 0 0 0 0 0 0 0 0.25 0"/>
<feBlend mode="normal" in2="BackgroundImageFix" result="effect1_dropShadow_3142_8580"/>
<feBlend mode="normal" in="SourceGraphic" in2="effect1_dropShadow_3142_8580" result="shape"/>
</filter>
</defs>
</svg>
