<svg width="340" height="22" viewBox="0 0 340 22" fill="none" xmlns="http://www.w3.org/2000/svg">
<rect y="3" width="10" height="8" fill="black"/>
<rect x="100" y="3" width="10" height="8" fill="black"/>
<rect x="200" y="3" width="10" height="8" fill="black"/>
<rect x="300" y="3" width="10" height="8" fill="black"/>
<rect x="20" y="3" width="10" height="8" fill="black"/>
<rect x="120" y="3" width="10" height="8" fill="black"/>
<rect x="220" y="3" width="10" height="8" fill="black"/>
<rect x="320" y="3" width="10" height="8" fill="black"/>
<rect x="40" y="3" width="10" height="8" fill="black"/>
<rect x="140" y="3" width="10" height="8" fill="black"/>
<rect x="240" y="3" width="10" height="8" fill="black"/>
<rect x="60" y="3" width="10" height="8" fill="black"/>
<rect x="160" y="3" width="10" height="8" fill="black"/>
<rect x="260" y="3" width="10" height="8" fill="black"/>
<rect x="80" y="3" width="10" height="8" fill="black"/>
<rect x="180" y="3" width="10" height="8" fill="black"/>
<rect x="280" y="3" width="10" height="8" fill="black"/>
<rect x="10" y="11" width="10" height="8" fill="black"/>
<rect x="110" y="11" width="10" height="8" fill="black"/>
<rect x="210" y="11" width="10" height="8" fill="black"/>
<rect x="310" y="11" width="10" height="8" fill="black"/>
<rect x="30" y="11" width="10" height="8" fill="black"/>
<rect x="130" y="11" width="10" height="8" fill="black"/>
<rect x="230" y="11" width="10" height="8" fill="black"/>
<rect x="330" y="11" width="10" height="8" fill="black"/>
<rect x="50" y="11" width="10" height="8" fill="black"/>
<rect x="150" y="11" width="10" height="8" fill="black"/>
<rect x="250" y="11" width="10" height="8" fill="black"/>
<rect x="70" y="11" width="10" height="8" fill="black"/>
<rect x="170" y="11" width="10" height="8" fill="black"/>
<rect x="270" y="11" width="10" height="8" fill="black"/>
<rect x="90" y="11" width="10" height="8" fill="black"/>
<rect x="190" y="11" width="10" height="8" fill="black"/>
<rect x="290" y="11" width="10" height="8" fill="black"/>
<rect y="20" width="340" height="2" fill="black"/>
<rect width="340" height="2" fill="black"/>
</svg>
